<svg width="11" height="11" viewBox="0 0 11 11" fill="none" xmlns="http://www.w3.org/2000/svg">
    <path d="M9.17051 5.70258C9.40393 5.46398 9.48292 5.11417 9.37468 4.79842C9.27306 4.48159 8.99979 4.25036 8.67051 4.20258L6.88301 3.92758C6.86613 3.92269 6.85235 3.91044 6.84551 3.89425L6.06218 2.22758C5.92183 1.9087 5.60641 1.70278 5.25801 1.70258C4.91374 1.70116 4.60063 1.90174 4.45801 2.21508L3.67468 3.88175C3.66604 3.89818 3.65094 3.91026 3.63301 3.91508L1.84968 4.20258C1.52008 4.25169 1.24617 4.4821 1.14134 4.79842C1.03714 5.11509 1.1174 5.46344 1.34968 5.70258L2.66634 7.05675C2.67401 7.07399 2.67401 7.09367 2.66634 7.11092L2.35801 9.00258C2.2995 9.33884 2.43996 9.67872 2.71878 9.87559C2.99759 10.0725 3.36488 10.0911 3.66218 9.92342L5.21634 9.06092C5.23201 9.05276 5.25067 9.05276 5.26634 9.06092L6.82051 9.92342C7.1181 10.0874 7.48319 10.0671 7.76076 9.87113C8.03833 9.67515 8.17964 9.33789 8.12468 9.00258L7.83718 7.11925C7.82825 7.10378 7.82825 7.08472 7.83718 7.06925L9.17051 5.70258Z" fill="#EFDF50"/>
    </svg>
    